{"accessors":[{"bufferView":0,"componentType":5126,"count":2304,"min":[-51.0,-1.0,-51.0],"max":[51.0,1.0,51.0],"type":"VEC3","name":"Torus_vertices#0_POSITION"},{"bufferView":0,"byteOffset":12,"componentType":5120,"count":2304,"type":"VEC4","name":"Torus_vertices#0_TANGENT"},{"bufferView":0,"byteOffset":16,"componentType":5120,"count":2304,"type":"VEC4","name":"Torus_vertices#0_NORMAL"},{"bufferView":0,"byteOffset":20,"componentType":5122,"count":2304,"type":"VEC2","name":"Torus_vertices#0_TEXCOORD_0"},{"bufferView":0,"byteOffset":24,"componentType":5122,"count":2304,"type":"VEC2","name":"Torus_vertices#0_TEXCOORD_1"},{"bufferView":0,"byteOffset":28,"componentType":5123,"count":2304,"type":"VEC4","name":"Torus_vertices#0_COLOR_0"},{"bufferView":1,"componentType":5123,"count":3456,"type":"SCALAR","name":"Torus_indices#0"}],"asset":{"generator":"Khronos glTF Blender I/O v3.6.28 and Asobo Studio MSFS2024 Blender I/O v4.3.5 with Blender v3.6.23","version":"2.0","extensions":{"ASOBO_asset_optimized":{"BoundingBoxMax":[51.0,51.00000762939453,1.0000067949295045],"BoundingBoxMin":[-51.0,-51.00000762939453,-1.0000067949295045],"MajorVersion":4,"MinorVersion":6,"UseCheckerboardMaterialForMissingTextures":true,"UseOnlyFilenameForImageURI":true},"ASOBO_normal_map_convention":{"tangent_space_convention":"DirectX"}}},"bufferViews":[{"buffer":0,"byteLength":82944,"byteStride":36,"target":34962,"name":"BufferViewVertexND"},{"buffer":0,"byteLength":6912,"byteOffset":82944,"target":34963,"name":"BufferViewIndexU16"}],"extensionsRequired":["MSFT_texture_dds"],"materials":[{"name":"Material","pbrMetallicRoughness":{"baseColorTexture":{"index":0}}}],"meshes":[{"primitives":[{"attributes":{"COLOR_0":5,"NORMAL":2,"POSITION":0,"TANGENT":1,"TEXCOORD_0":3,"TEXCOORD_1":4},"indices":6,"material":0,"mode":4,"extras":{"ASOBO_primitive":{"PrimitiveCount":1152,"UV2Length":0.7071067690849304,"UVLength":0.7071067690849304,"VertexCount":2304,"VertexType":"VTX","VertexVersion":2}}}],"name":"Torus"}],"nodes":[{"rotation":[0.7071068286895752,0.0,0.0,0.7071068286895752],"mesh":0,"extensions":{"ASOBO_unique_id":{"id":"Torus"}},"name":"Torus"}],"scene":0,"scenes":[{"nodes":[0],"name":"Scene"}],"textures":[{"extensions":{"MSFT_texture_dds":{"source":0}}}],"samplers":[{"magFilter":9729,"minFilter":9987,"wrapS":10497,"wrapT":10497}],"extensionsUsed":["ASOBO_normal_map_convention","ASOBO_unique_id","MSFT_texture_dds","ASOBO_asset_optimized"],"buffers":[{"byteLength":89856,"uri":"Torus.bin"}],"images":[{"uri":"..\\TEXTURE\\BASE.PNG.KTX2","name":"base.png.001","extras":"ASOBO_image_converted_meta"}]}
