{"asset":{"version":"2.0","generator":"babylon.js glTF exporter for 3dsmax 2024 v1.0.9340.21150","extensions":{"ASOBO_normal_map_convention":{"tangent_space_convention":"DirectX"}}},"extensionsUsed":["ASOBO_normal_map_convention","ASOBO_unique_id"],"scene":0,"scenes":[{"nodes":[0]}],"nodes":[{"mesh":0,"name":"Tube001","extensions":{"ASOBO_unique_id":{"id":"Tube001"}}}],"meshes":[{"primitives":[{"attributes":{"POSITION":1,"NORMAL":2,"TEXCOORD_0":3},"indices":0}],"name":"Tube001"}],"accessors":[{"bufferView":0,"componentType":5123,"count":1296,"type":"SCALAR","name":"accessorIndices"},{"bufferView":1,"componentType":5126,"count":304,"max":[16.9776917,0.6729208,17.2396],"min":[-16.9776917,0.0,-17.2396],"type":"VEC3","name":"accessorPositions"},{"bufferView":1,"byteOffset":3648,"componentType":5126,"count":304,"type":"VEC3","name":"accessorNormals"},{"bufferView":2,"componentType":5126,"count":304,"type":"VEC2","name":"accessorUVs"}],"bufferViews":[{"buffer":0,"byteLength":2592,"name":"bufferViewScalar"},{"buffer":0,"byteOffset":2592,"byteLength":7296,"byteStride":12,"name":"bufferViewFloatVec3"},{"buffer":0,"byteOffset":9888,"byteLength":2432,"byteStride":8,"name":"bufferViewFloatVec2"}],"buffers":[{"uri":"Tube001.bin","byteLength":12320}]}