{"accessors":[{"bufferView":0,"componentType":5126,"count":304,"min":[-16.977691650390626,0.0,-17.239599227905275],"max":[16.977691650390626,0.672920823097229,17.239599227905275],"type":"VEC3","name":"Tube001_vertices#0_POSITION"},{"bufferView":0,"byteOffset":12,"componentType":5120,"count":304,"type":"VEC4","name":"Tube001_vertices#0_TANGENT"},{"bufferView":0,"byteOffset":16,"componentType":5120,"count":304,"type":"VEC4","name":"Tube001_vertices#0_NORMAL"},{"bufferView":0,"byteOffset":20,"componentType":5122,"count":304,"type":"VEC2","name":"Tube001_vertices#0_TEXCOORD_0"},{"bufferView":0,"byteOffset":24,"componentType":5122,"count":304,"type":"VEC2","name":"Tube001_vertices#0_TEXCOORD_1"},{"bufferView":0,"byteOffset":28,"componentType":5123,"count":304,"type":"VEC4","name":"Tube001_vertices#0_COLOR_0"},{"bufferView":1,"componentType":5123,"count":1296,"type":"SCALAR","name":"Tube001_indices#0"}],"asset":{"generator":"babylon.js glTF exporter for 3dsmax 2024 v1.0.9340.21150","version":"2.0","extensions":{"ASOBO_asset_optimized":{"BoundingBoxMax":[16.977691650390626,0.672920823097229,17.239599227905275],"BoundingBoxMin":[-16.977691650390626,0.0,-17.239599227905275],"MajorVersion":4,"MinorVersion":6,"UseCheckerboardMaterialForMissingTextures":true,"UseOnlyFilenameForImageURI":true},"ASOBO_normal_map_convention":{"tangent_space_convention":"DirectX"}}},"bufferViews":[{"buffer":0,"byteLength":10944,"byteStride":36,"target":34962,"name":"BufferViewVertexND"},{"buffer":0,"byteLength":2592,"byteOffset":10944,"target":34963,"name":"BufferViewIndexU16"}],"materials":[{"name":"glTFValidator_Added_Default_Material"}],"meshes":[{"primitives":[{"attributes":{"COLOR_0":5,"NORMAL":2,"POSITION":0,"TANGENT":1,"TEXCOORD_0":3,"TEXCOORD_1":4},"indices":6,"material":0,"mode":4,"extras":{"ASOBO_primitive":{"PrimitiveCount":432,"UV2Length":0.7071067690849304,"UVLength":0.7071067690849304,"VertexCount":304,"VertexType":"VTX","VertexVersion":2}}}],"name":"Tube001"}],"nodes":[{"mesh":0,"extensions":{"ASOBO_unique_id":{"id":"Tube001"}},"name":"Tube001"}],"scene":0,"scenes":[{"nodes":[0]}],"extensionsUsed":["ASOBO_normal_map_convention","ASOBO_unique_id","ASOBO_asset_optimized"],"buffers":[{"byteLength":13536,"uri":"Tube001.bin"}]}
